<?xml version="1.0" encoding="UTF-8"?>
<svg xmlns="http://www.w3.org/2000/svg" viewBox="0 0 1463.15 499.85">
  <defs>
    <style>
      .cls-1 {
        letter-spacing: .09em;
      }

      .cls-2, .cls-3 {
        stroke-width: 0px;
      }

      .cls-4 {
        stroke: #fff;
        stroke-miterlimit: 10;
        stroke-width: 5px;
      }

      .cls-4, .cls-3, .cls-5 {
        fill: #fff;
      }

      .cls-6 {
        letter-spacing: .45em;
      }

      .cls-5 {
        font-family: Corbel, Corbel;
        font-size: 93px;
      }

      .cls-7 {
        letter-spacing: -.02em;
      }
    </style>
  </defs>
  <g id="BCM_Logo" data-name="BCM Logo">
    <rect class="cls-3" width="499.85" height="499.85"/>
    <g>
      <path class="cls-2" d="M271.72,202.74v-2c10-1.5,10.5-3.1,10.6-13.7v-57.28c0-5.7.1-7.4-6.7-12.4v-1.3l13.3-6,1.5.5v76.38c0,11.2.5,12.2,10.6,13.7v2h-29.29v.1Z"/>
      <path class="cls-2" d="M190.64,158.95c0-10.5-4-13.1-10.3-13.1-14,0-8.2,15.6-17.09,15.6-2.6,0-4.4-1.4-4.4-4.1,0-5.6,13.7-15.2,25.29-15.2,10.2,0,15.1,7.2,15.1,20.29v33.19c0,3.5,4.1,2.4,5.8,2.4,2.3,0,3.8-.9,5.3-2.3l1.5,1.7c-2.1,3.3-7.3,5.8-11.8,5.8s-9.1-3.3-9.4-9c-7.1,6.5-14.1,9-19.89,9-8.6,0-11.6-5.2-11.6-11.8,0-10.5,5.6-13.5,23.39-18.09l8.2-2.1v-12.3h-.1ZM190.64,173.65l-6.1,1.5c-11.4,2.9-17.29,6.3-17.29,12.7,0,5.6,3.2,10.2,10,10.2,4.8,0,9.3-3,13.4-6.2,0,0,0-18.19,0-18.19Z"/>
      <path class="cls-2" d="M119.66,153.95c12.4,2.8,24.89,9.2,24.89,25.19,0,25.09-29.49,23.89-36.19,23.79l-31.29-.3v-2c16.29-2.2,14.1-6.3,14.5-20.19v-47.09c-.4-14,1.7-17.99-13.7-20.09v-2l21.59-1.1c15.2-.5,39.09,1.6,39.09,22.99,0,13.3-8,17.79-18.79,20.49v.3h-.1ZM99.67,179.24c0,10.6-.7,20.59,13.1,20.59,11.8,0,22.39-7.8,22.39-19.69,0-8.3-10-24.69-30.29-23.69l-5.3.3v22.49h.1ZM99.67,153.85c12.6-.2,30.49-3.5,30.49-19.29s-16.69-21.29-30.49-21.29v40.59Z"/>
      <path class="cls-2" d="M219.43,153.35c-2.5-6.1-3-7.5-9.8-8.6v-2.1h25.19v2.1c-10.3.5-7.6,6.8-4.9,13.7l13.3,34.49,8.4-24.39c6.1-17.59,7.2-22.39-2.9-23.79v-2.1h23.79v2.1c-6,.7-7.9,3.1-10.4,8.3l-5.7,13.2-17.49,42.99c-5,12.6-8.5,16.79-14,16.79-3.7,0-6.7-3-6.7-6.8,0-2.9,1.6-5.5,4.4-6.4,1.3.8,5.5,3.8,7.2,3.8,3,0,5.4-7.3,6.4-9.4l1.1-3.2-17.89-50.68Z"/>
      <path class="cls-2" d="M337.5,204.04c-18.59,0-29.89-11.8-29.89-31.09s11.8-31.59,29.99-31.59,31.09,12,31.09,31.09c.1,18.49-13.2,31.59-31.19,31.59M337.4,144.36c-14.7,0-20.59,15.2-20.59,27.69s7.1,28.99,21.69,28.99c13.7,0,19.79-15.6,19.79-27.29,0-12.4-6.1-29.39-20.89-29.39"/>
      <path class="cls-2" d="M396.58,186.94c.1,8.3-1.1,12.5,9.6,13.7v2h-27.99v-2c9.3-1.5,9.8-3.1,9.9-13.7v-25.89c0-5.7.1-7.5-6.7-12.3v-1.4l14.1-6,1.5.5-.6,16h.3c3-7.2,10.6-16.59,19.19-16.59,3.8,0,6.9,2.4,6.9,6.3,0,3.6-3.9,7.1-7.1,8.5-2.3-1.7-5.7-4.7-8.7-4.5-11.5,1.1-10.6,19.59-10.6,21.59v13.8h.2Z"/>
      <path class="cls-2" d="M131.86,255.42h-1.2c-1.5-8.8-6.6-15.1-16-15.1-14.3,0-22.29,11.7-22.29,25.09,0,15.4,11.8,26.09,23.09,26.09,10.2,0,14.3-7.5,17.79-15.9l1.1.5c-.9,4.8-2.4,9.4-4.3,13.9-5,2.4-10.4,3.4-15.9,3.4-16.29,0-30.79-9.4-30.79-26.99,0-13.9,10.8-27.89,31.49-27.89,5.9,0,11.9,1.2,17.09,4.2v12.7h-.1Z"/>
      <path class="cls-2" d="M159.45,293.21c-10.7,0-19.19-6.8-19.19-17.89s8.8-18.19,19.29-18.19,19.09,6.9,19.09,17.89-8.9,18.19-19.19,18.19M159.35,258.92c-8.4,0-11.8,8.7-11.8,15.9s4,16.69,12.5,16.69c7.9,0,11.4-9,11.4-15.7,0-7.2-3.6-16.89-12.1-16.89"/>
      <path class="cls-2" d="M181.24,292.41v-1.2c5.8-.9,6-1.8,6.1-7.9v-34.29c0-3.3.1-4.3-3.8-7.1v-.8l9-3.4.8.3v45.29c0,6.4.3,7,6.1,7.9v1.2h-18.19Z"/>
      <path class="cls-2" d="M202.34,292.41v-1.2c5.8-.9,6-1.8,6.1-7.9v-34.29c0-3.3.1-4.3-3.8-7.1v-.8l9-3.4.9.3v45.29c0,6.4.3,7,6.1,7.9v1.2h-18.29Z"/>
      <path class="cls-2" d="M228.83,272.52c-.6,8.1,4.9,15.7,13.7,15.7,4,0,6.9-1.8,9.2-4.9l1.2.9c-3,5.1-8.3,9-14.4,9-9.7,0-16.39-7.9-16.39-17.29,0-10.1,7-18.69,17.49-18.69,7,0,11.7,4.5,12,11.5h-22.69l-.1,3.8ZM244.42,266.52c-.7-3.6-2.9-7.6-7-7.6-4.4,0-7.1,4.4-8,8.3l15-.7Z"/>
      <path class="cls-2" d="M282.11,286.51c8.4-.3,13,3.2,13,8.4,0,7.6-10.4,16.39-24.29,16.39-9.3,0-13.1-4.7-13.1-8,0-5.9,6-8.6,10.5-10.9-3-.4-8-2.4-8-5.9,0-2.4,4.1-5.5,5.9-6.9-3.7-2.1-6.4-5.6-6.4-10,0-8,7.3-12.5,14.7-12.5,3.8,0,6.8.9,10.2,2.5h11.2v3.3l-9.5-.2c1.1,2,1.6,3.7,1.6,6.1,0,8-7.2,12.5-14.5,12.5-2,0-4-.3-5.8-1-2.6,2.4-2.5,7,4.7,6.6l9.8-.4ZM270.72,292.41c-2.8,1.2-7.3,4.4-7.3,7.8,0,5.7,8.3,7.3,12.7,7.3,5.6,0,14.4-2.4,14.4-9.4s-10.1-6.2-12.1-6.2l-7.7.5ZM281.21,269.92c0-5.1-2.3-11-8.1-11-5.1,0-6.7,5.2-6.7,9.4,0,7.7,4.7,11.2,8.2,11.2,5.2,0,6.6-5.3,6.6-9.6"/>
      <path class="cls-2" d="M306.9,272.52c-.6,8.1,4.9,15.7,13.7,15.7,4.1,0,6.9-1.8,9.2-4.9l1.2.9c-3,5.1-8.3,9-14.4,9-9.7,0-16.39-7.9-16.39-17.29,0-10.1,7-18.69,17.59-18.69,7,0,11.7,4.5,12,11.5h-22.59l-.3,3.8ZM322.4,266.52c-.7-3.6-2.9-7.6-7-7.6-4.4,0-7.1,4.4-8,8.3l15-.7Z"/>
      <path class="cls-2" d="M367.09,293.21c-10.7,0-19.19-6.8-19.19-17.89s8.8-18.19,19.29-18.19,19.09,6.9,19.09,17.89-8.9,18.19-19.19,18.19M366.99,258.92c-8.4,0-11.8,8.7-11.8,15.9s4,16.69,12.5,16.69c7.9,0,11.4-9,11.4-15.7-.1-7.2-3.6-16.89-12.1-16.89"/>
      <path class="cls-2" d="M388.88,261.22l6.3-3.6c.1-4.6.6-8.8,3.1-12.8,3-4.7,7.8-8.4,13.5-8.4,3,0,9,1.3,9,5.3,0,2.5-2.2,3.4-4.3,3.3-1.9-2.7-5.1-6.2-8.6-6.2-6.3,0-6.8,10.8-6.8,15.2v4.7h10.2v3.3h-10.2v21.39c0,6.4.3,7,7.5,7.9v1.2h-19.69v-1.2c5.9-.9,6.1-1.8,6.2-7.9v-21.39h-6.2v-.8Z"/>
      <path class="cls-2" d="M166.25,365.19c-.7,9.4,5.7,18.09,15.9,18.09,4.7,0,7.9-2.1,10.6-5.6l1.4,1c-3.4,5.8-9.6,10.5-16.59,10.5-11.2,0-18.89-9.2-18.89-20.09,0-11.6,8.1-21.59,20.29-21.59,8.1,0,13.5,5.1,13.9,13.3h-26.29l-.3,4.4ZM184.14,358.19c-.8-4.2-3.3-8.8-8.1-8.8-5.1,0-8.2,5-9.2,9.5l17.29-.7Z"/>
      <path class="cls-2" d="M263.32,334.5c0,2.5-2.1,4.6-4.6,4.6s-4.6-2.1-4.6-4.6,2.1-4.6,4.6-4.6,4.6,2.1,4.6,4.6"/>
      <path class="cls-2" d="M329.2,334.5c0,2.5-2.1,4.6-4.6,4.6s-4.6-2.1-4.6-4.6,2.1-4.6,4.6-4.6,4.6,2.1,4.6,4.6"/>
      <path class="cls-2" d="M231.33,389.78v-8.6c-4.1,4-8.8,7.9-14.9,7.9-9.7,0-16.99-9.6-16.99-18.79,0-13.7,11.1-22.89,24.29-22.89,2.6,0,5.1.3,7.5.9v-11.8c0-3.8.1-1.9-4.4-5.1v-.9l10.4-4,1,.4v49.78c0,8.3,0,9.4,7.6,8.3l.4,1.5-14.9,3.3ZM231.33,362.89c0-10.5-7.9-12.7-12.2-12.7-8.4,0-12,8.6-12,15.8,0,13,7.8,18.59,14.4,18.59,3.6,0,7.8-3.2,9.7-6.2v-15.5h.1Z"/>
      <path class="cls-2" d="M248.82,388.18v-1.3c6.7-1,7-2.1,7-9.1v-17.29c0-3.8.1-5-5.5-8.2v-.9l11.5-4,1,.4v29.89c0,7.4.4,8.1,7,9.1v1.3h-20.99v.1Z"/>
      <path class="cls-2" d="M308.8,381.58c-4.1,4.6-9.7,7.5-15.9,7.5-11,0-18.49-9.2-18.49-19.79,0-12.6,11-21.89,23.19-21.89,2.9,0,9.8.4,9.8,4.5,0,2-2.2,4.2-4.2,4.2-3.2,0-6.4-5.8-10.9-5.8-7.2,0-10.6,8.4-10.6,14.5,0,11.7,7.9,18.99,16.89,18.99,3.7,0,6.3-1.3,9.3-3.5l.9,1.3Z"/>
      <path class="cls-2" d="M313.5,388.18v-1.3c6.7-1,7-2.1,7-9.1v-17.29c0-3.8.1-5-5.5-8.2v-.9l11.4-4,1,.4v29.89c0,7.4.3,8.1,7,9.1v1.3h-20.89v.1Z"/>
      <path class="cls-2" d="M344.39,360.49c0-3.8.1-5-4.4-8.2v-.9l10.7-4,1,.4-.7,6.6c5.1-3.8,10.1-7,15.9-7,10.9,0,11.4,9,11.4,14.2v16.1c0,7.4.4,8.1,7,9.1v1.3h-20.99v-1.3c6.7-1,7-2.1,7.1-9.1v-10.4c0-6.3.3-15.2-10.7-15.2-3.7,0-6.2,1.2-9.2,3.9v21.69c0,7.4.3,8.1,7,9.1v1.3h-20.99v-1.3c6.7-1,6.9-2.1,7-9.1v-17.19h-.1Z"/>
      <path class="cls-2" d="M394.98,365.19c-.7,9.4,5.7,18.09,15.9,18.09,4.7,0,7.9-2.1,10.6-5.6l1.3,1c-3.4,5.8-9.5,10.5-16.59,10.5-11.2,0-18.89-9.2-18.89-20.09,0-11.6,8.1-21.59,20.29-21.59,8.1,0,13.5,5.1,13.9,13.3h-26.09l-.4,4.4ZM412.97,358.19c-.8-4.2-3.4-8.8-8.1-8.8-5.1,0-8.2,5-9.2,9.5l17.29-.7Z"/>
      <path class="cls-2" d="M131.56,386.18c7-.4,8.6-1.6,8.5-5.6-.4-14.5-.4-29.39-1-43.59h-.1c-7.8,16.69-16.49,34.09-22.89,50.18h-1.4c-1.7-3.8-4.3-11.2-7.4-17.39-3.2-6.4-9.6-20.59-15.3-33.89h-.2c-.1,15.7-.8,30.59-.8,39.39,0,7.8,1.7,11,8.8,11v1.9h-20.09v-1.9c5.5-1,7.6-2.3,8.1-10.2,1-12.4,1.4-31.19,1.4-36.29,0-9.9-1.3-10.6-8.7-11v-1.9h16l17.19,39.09c1.4,3.1,2.8,5.7,4.1,9.4l23.29-48.48h14.9v1.9c-7.6.5-9.3,2.3-9.3,9.8,0,3.8.7,24.99,1,42.49.1,3.9,2.3,4.7,8.3,5.1v1.9h-24.39v-1.9Z"/>
    </g>
  </g>
  <g id="mstp">
    <text class="cls-5" transform="translate(546.62 174.56)"><tspan x="0" y="0">MEDICAL</tspan><tspan class="cls-6" x="375.22" y="0"> </tspan><tspan x="435.97" y="0">SCIENTIST</tspan><tspan x="0" y="88">TRAINING</tspan><tspan class="cls-1" x="403.06" y="88"> </tspan><tspan x="429.7" y="88">PROGRAM</tspan></text>
    <text class="cls-5" transform="translate(740.62 396.77)"><tspan x="0" y="0">M.</tspan><tspan class="cls-7" x="100.99" y="0">D</tspan><tspan x="161.12" y="0" xml:space="preserve">.    Ph.</tspan><tspan class="cls-7" x="387.26" y="0">D</tspan><tspan x="447.38" y="0">.</tspan></text>
    <line class="cls-4" x1="548.2" y1="301.92" x2="1404.99" y2="301.92"/>
    <circle class="cls-3" cx="962.42" cy="365.06" r="10.47"/>
  </g>
</svg>