<?xml version="1.0" encoding="utf-8"?>
<!-- Generator: Adobe Illustrator 23.0.4, SVG Export Plug-In . SVG Version: 6.00 Build 0)  -->
<svg version="1.1" id="Layer_1" xmlns="http://www.w3.org/2000/svg" xmlns:xlink="http://www.w3.org/1999/xlink" x="0px" y="0px"
	 viewBox="0 0 410.3 77" style="enable-background:new 0 0 410.3 77;" xml:space="preserve">
<style type="text/css">
	.st0{fill:#FFFFFF;}
	.st1{fill:#04522F;}
	.st2{fill:#F37422;}
	.st3{fill:none;stroke:#065330;stroke-width:2;}
	.st4{fill:#065330;}
</style>
<path class="st0" d="M65.5,0l0.1,28.7c0,1.8,0,7.4-14.1,7.5h-1.3h-1.3c-14.1,0-14.1-5.6-14.1-7.5l0-28.7H15.4v33
	c0,9.1,25.6,9.8,33.4,9.8H50h0.3h1.2c7.8,0,33.4-0.7,33.4-9.8V0H65.5z"/>
<path class="st1" d="M67,28.7V1.4h16.5c0,0,0,30.5,0,31.6c0,6-16.4,8.4-32,8.4c0-0.8,0-2.6,0-3.8C59.2,37.6,67,35.9,67,28.7"/>
<path class="st2" d="M33.3,28.7V1.4H16.8c0,0,0,30.5,0,31.6c0,6,16.4,8.4,32,8.4c0-0.8,0-2.6,0-3.8C41,37.6,33.3,35.9,33.3,28.7"/>
<line class="st3" x1="0.3" y1="50.8" x2="100.3" y2="50.8"/>
<path class="st2" d="M17.9,73.3c0,2.1,0.5,2.8,2.6,2.8V77h-6.3v-0.9c2.2,0,2.6-0.7,2.6-2.8v-9.9c0-0.9-0.3-1-1.2-1h-1.3v-1h5.5
	l4.2,12l4.1-12h5.3v1h-1.2c-0.9,0-1.1,0.2-1.1,1V75c0,0.9,0.3,1,1.1,1h1.2v1h-7.1v-1h1.3c0.9,0,1.2-0.2,1.2-1V62.7L23.9,77H23
	l-5.2-14.4v10.7H17.9z"/>
<path class="st2" d="M35.1,76h1.2c0.9,0,1.2-0.2,1.2-1V63.3c0-0.8-0.3-1-1.2-1h-1.2v-1h7.1v1H41c-0.9,0-1.2,0.2-1.2,1v11.6
	c0,0.8,0.3,1,1.2,1h1.2v1h-7.1C35.1,76.9,35.1,76,35.1,76z"/>
<path class="st2" d="M49.4,64.5l-2.5,6.3H52L49.4,64.5z M50.4,61L56,74.9c0.3,0.9,0.6,1.1,1.5,1.1c0.1,0,0.3,0,0.4,0v1h-6.5v-1h0.8
	c0.9,0,1.3-0.1,1.3-0.6c0-0.2-0.1-0.4-0.2-0.8l-1-2.7h-5.9l-0.7,1.7c-0.2,0.5-0.3,1-0.3,1.3c0,0.7,0.5,1.1,1.6,1.1h0.5v1H42v-1h0.2
	c1.3,0,1.7-0.5,2.2-1.9L49.6,61H50.4z"/>
<path class="st2" d="M61.3,73.3c0,2.1,0.5,2.8,2.6,2.8V77h-6.3v-1c2.2,0,2.6-0.7,2.6-2.8v-9.9c0-0.9-0.3-1-1.2-1h-1.3v-1h5.5l4.2,12
	l4.1-12h5.3v1h-1.2c-0.9,0-1.1,0.2-1.1,1v11.6c0,0.9,0.3,1,1.1,1h1.2v1h-7.1v-1H71c0.9,0,1.2-0.2,1.2-1V62.7L67.3,77h-0.9l-5.2-14.4
	L61.3,73.3L61.3,73.3z"/>
<path class="st2" d="M78.4,76h1.2c0.9,0,1.2-0.2,1.2-1V63.3c0-0.8-0.3-1-1.2-1h-1.2v-1h7.1v1h-1.2c-0.9,0-1.2,0.2-1.2,1v11.6
	c0,0.8,0.3,1,1.2,1h1.2v1h-7.1V76z"/>
<g>
	<path class="st4" d="M131.3,13.5v16.1c0,1.7,0.3,2.8,0.8,3.4c0.6,0.6,1.6,0.8,3.1,0.9v1.4h-9.6v-1.4c1.6,0,2.6-0.3,3.1-0.9
		s0.8-1.7,0.8-3.4v-15c0-1.2-0.4-1.6-1.7-1.6h-1.9v-1.6h8.3l6.4,18.2l6.2-18.2h8.1V13h-1.7c-1.4,0-1.7,0.4-1.7,1.6V32
		c0,1.2,0.4,1.6,1.7,1.6h1.7v1.6h-10.7v-1.6h2c1.4,0,1.7-0.4,1.7-1.6V13.5l-7.4,21.7h-1.3L131.3,13.5z"/>
	<path class="st4" d="M156.3,35.2v-1.6h1.8c1.4,0,1.8-0.4,1.8-1.6V14.5c0-1.2-0.4-1.6-1.8-1.6h-1.8v-1.6H167v1.6h-1.8
		c-1.4,0-1.7,0.4-1.7,1.6V32c0,1.2,0.4,1.6,1.7,1.6h1.8v1.6C167,35.2,156.3,35.2,156.3,35.2z"/>
	<path class="st4" d="M168.4,35.2v-1.6h1.7c1.4,0,1.7-0.4,1.7-1.6V14.5c0-1.2-0.3-1.6-1.7-1.6h-1.7v-1.6h10.5v1.6h-1.7
		c-1.4,0-1.7,0.4-1.7,1.6V32c0,0.7,0.1,1.1,0.4,1.4c0.3,0.2,1.1,0.3,2.4,0.3c3.4,0,5.1-0.3,6.1-1.2c1.1-1,1.9-3.1,2.5-6.4h1.3
		l-0.5,9.1H168.4z"/>
	<path class="st4" d="M189.3,35.2v-1.6h1.7c1.4,0,1.7-0.4,1.7-1.6V14.5c0-1.2-0.3-1.6-1.7-1.6h-1.7v-1.6h10.5v1.6h-1.7
		c-1.4,0-1.7,0.4-1.7,1.6V32c0,0.7,0.1,1.1,0.4,1.4c0.3,0.2,1.1,0.3,2.4,0.3c3.4,0,5.1-0.3,6.1-1.2c1.1-1,1.9-3.1,2.5-6.4h1.3
		l-0.5,9.1H189.3z"/>
	<path class="st4" d="M210.2,35.2v-1.6h1.7c1.4,0,1.7-0.4,1.7-1.6V14.5c0-1.2-0.3-1.6-1.7-1.6h-1.7v-1.6h19.3l0.4,8.4h-1.4
		c-0.4-2.7-1.3-4.8-2.3-5.7c-1.1-0.9-2.7-1.2-6.1-1.2c-1.3,0-2.1,0.1-2.4,0.3s-0.4,0.7-0.4,1.3V22h0.5c3.4,0,4.7-1.2,5-4.6h1.4V28
		h-1.4c-0.2-1.7-0.6-2.9-1.3-3.5c-0.7-0.7-1.9-1-3.7-1h-0.5V32c0,0.7,0.2,1.1,0.5,1.4c0.3,0.2,1.2,0.3,2.6,0.3
		c3.1,0,4.9-0.2,6.1-0.9c1.5-0.7,2.3-2.7,3.1-6.7h1.3l-0.5,9h-20.2V35.2z"/>
	<path class="st4" d="M232.3,35.2v-1.6h1.7c1.4,0,1.8-0.4,1.8-1.6V14.5c0-1.2-0.3-1.6-1.8-1.6h-1.7v-1.6h13.2c2,0,3.6,0.5,4.8,1.6
		s1.8,2.5,1.8,4.2c0,3.4-2.4,5.4-7.3,5.9c2.7,0.4,4,1.7,4.7,4.3l0.9,3.7c0.4,1.6,0.8,2.2,1.5,2.2c0.9,0,1.3-1.1,1.4-3.5h1.3
		c0,0.2,0,0.6,0,0.8c0,3.3-1.5,5.2-4,5.2s-3.5-1.2-3.9-4.7l-0.4-3.3c-0.3-3-1.7-4.2-5.1-4.2h-1.8V32c0,1.2,0.4,1.6,1.7,1.6h2v1.6
		C243.1,35.2,232.3,35.2,232.3,35.2z M239.3,22l1.6,0.1c0.3,0,0.5,0,1.1,0c4.5,0,6.3-1.4,6.3-4.7s-1.5-4.6-5.2-4.6H241
		c-1.3,0-1.7,0.3-1.7,1.5V22z"/>
	<path class="st4" d="M264.5,35.6h-1.2l-0.2-9.6h1.4c1,5.4,3.7,8.3,8,8.3c3.5,0,5.6-1.8,5.6-4.7c0-1.4-0.5-2.5-1.5-3.1
		c-0.6-0.4-1.9-0.9-3.9-1.4l-1.5-0.4c-3.1-0.8-5.2-1.7-6.3-2.8c-1-1-1.6-2.4-1.6-4.3c0-4.1,2.8-6.7,7-6.7c2.4,0,4.6,0.8,6.2,2.3
		l1.3-2h1.2l0.4,8.6h-1.3c-1.2-4.9-3.8-7.4-7.8-7.4c-2.9,0-4.6,1.5-4.6,4c0,1.9,2,3.4,6,4.4l0.9,0.2c1.8,0.5,3.1,0.9,3.9,1.2
		c0.8,0.4,1.4,0.8,2,1.3c1.3,1.2,2,3,2,5.1c0,4.6-3,7.3-8.2,7.3c-2.5,0-5-0.9-6.6-2.5L264.5,35.6z"/>
	<path class="st4" d="M302.3,27c-0.7,5.5-4.2,8.8-9.3,8.8c-2.5,0-4.7-0.8-6.4-2.2c-3-2.5-4.5-5.9-4.5-10.3c0-3.3,1-6.2,2.8-8.6
		c2.1-2.6,4.6-3.8,7.9-3.8c2.2,0,4.2,0.7,5.9,2.2l1.3-2h1.3l0.4,9.6l-1.3,0.1c-1-5.4-3.5-8.4-7.2-8.4c-4.6,0-6.9,3.6-6.9,11
		c0,7.5,2.2,10.9,7.1,10.9c3.8,0,6.4-2.6,7.3-7.4L302.3,27z"/>
	<path class="st4" d="M303.2,35.2v-1.6h1.7c1.4,0,1.8-0.4,1.8-1.6V14.5c0-1.2-0.4-1.6-1.8-1.6h-1.7v-1.6h10.5v1.6H312
		c-1.3,0-1.7,0.4-1.7,1.6v7.4h11.2v-7.4c0-1.2-0.4-1.6-1.8-1.6H318v-1.6h10.6v1.6h-1.7c-1.4,0-1.7,0.4-1.7,1.6V32
		c0,1.2,0.4,1.6,1.7,1.6h1.7v1.6H318v-1.6h1.7c1.3,0,1.8-0.4,1.8-1.6v-8.5h-11.2V32c0,1.2,0.4,1.6,1.7,1.6h1.7v1.6
		C313.7,35.2,303.2,35.2,303.2,35.2z"/>
	<path class="st4" d="M332,14.4c2.1-2.4,5-3.7,8.3-3.7s6,1.2,8.2,3.6c2.1,2.3,3.1,5.3,3.1,8.9c0,3.7-0.9,6.3-2.9,8.6
		c-2.2,2.5-5,3.8-8.4,3.8s-6.2-1.2-8.4-3.8c-2-2.3-2.9-5.1-2.9-8.6C328.9,19.8,330,16.7,332,14.4z M340.3,34.3c4.8,0,7.1-3.6,7.1-11
		c0-7.5-2.3-11-7.1-11c-4.8,0-7.1,3.6-7.1,11C333.2,30.7,335.5,34.3,340.3,34.3z"/>
	<path class="st4" d="M356.5,14.4c2.1-2.4,5-3.7,8.3-3.7s6,1.2,8.2,3.6c2.1,2.3,3.1,5.3,3.1,8.9c0,3.7-0.9,6.3-2.9,8.6
		c-2.2,2.5-5,3.8-8.4,3.8s-6.2-1.2-8.4-3.8c-2-2.3-2.9-5.1-2.9-8.6C353.4,19.8,354.5,16.7,356.5,14.4z M364.7,34.3
		c4.8,0,7.1-3.6,7.1-11c0-7.5-2.3-11-7.1-11c-4.8,0-7.1,3.6-7.1,11C357.7,30.7,359.9,34.3,364.7,34.3z"/>
	<path class="st4" d="M376.5,35.2v-1.6h1.7c1.4,0,1.8-0.4,1.8-1.6V14.5c0-1.2-0.3-1.6-1.8-1.6h-1.7v-1.6H387v1.6h-1.7
		c-1.4,0-1.7,0.4-1.7,1.6V32c0,0.7,0.1,1.1,0.4,1.4c0.3,0.2,1.1,0.3,2.4,0.3c3.4,0,5.1-0.3,6.1-1.2c1.1-1,1.9-3.1,2.5-6.4h1.3
		l-0.5,9.1H376.5z"/>
	<path class="st4" d="M128.5,51.7c1.4-1.5,3.2-2.3,5.4-2.3s4,0.8,5.3,2.3c1.4,1.5,2,3.5,2,5.9s-0.7,4.4-2.1,5.9
		c-1.4,1.5-3.1,2.2-5.3,2.2s-4-0.8-5.4-2.2c-1.4-1.5-2-3.5-2-5.9C126.4,55.1,127.1,53.1,128.5,51.7z M133.8,64.4
		c2.9,0,4.1-2,4.1-6.8s-1.2-6.8-4-6.8s-4,2.1-4,6.8C129.8,62.3,131,64.4,133.8,64.4z"/>
	<path class="st4" d="M141.4,65.2v-1.4h1.4c0.9-0.1,1.1-0.3,1.1-1.2V51.3h-2.7v-1.4h2.7v-0.7c0-5.6,2.1-8.4,6.1-8.4
		c2.7,0,4.5,1.3,4.5,3.3c0,1.2-0.7,1.9-1.8,1.9c-1,0-1.7-0.8-1.7-1.7c0-0.5,0.5-1.4,0.5-1.5c0-0.4-0.5-0.6-1.3-0.6
		c-2.4,0-3.4,2-3.4,7.2V50h3.5v1.4h-3.5v11.3c0,1,0.3,1.2,1.1,1.2h2v1.5h-8.5V65.2z"/>
	<path class="st4" d="M164.7,43.5v16.1c0,1.7,0.3,2.8,0.8,3.4c0.6,0.6,1.6,0.8,3.1,0.9v1.4H159v-1.4c1.6,0,2.6-0.3,3.1-0.9
		c0.6-0.6,0.8-1.7,0.8-3.4v-15c0-1.2-0.4-1.6-1.7-1.6h-1.9v-1.6h8.3l6.4,18.2l6.2-18.2h8.1V43h-1.7c-1.4,0-1.7,0.4-1.7,1.6V62
		c0,1.2,0.4,1.6,1.7,1.6h1.7v1.6h-10.7v-1.6h2c1.4,0,1.7-0.4,1.7-1.6V43.5l-7.4,21.7h-1.3L164.7,43.5z"/>
	<path class="st4" d="M189.6,65.2v-1.6h1.7c1.4,0,1.7-0.4,1.7-1.6V44.5c0-1.2-0.3-1.6-1.7-1.6h-1.7v-1.6h19.3l0.4,8.4h-1.4
		c-0.4-2.7-1.3-4.8-2.3-5.7c-1.1-0.9-2.7-1.2-6.1-1.2c-1.3,0-2.1,0.1-2.4,0.3c-0.3,0.2-0.4,0.7-0.4,1.3V52h0.5c3.4,0,4.7-1.2,5-4.6
		h1.4V58h-1.4c-0.2-1.7-0.6-2.9-1.3-3.5c-0.7-0.7-1.9-1-3.7-1h-0.5V62c0,0.7,0.2,1.1,0.5,1.4c0.3,0.2,1.2,0.3,2.6,0.3
		c3.1,0,4.9-0.2,6.1-0.9c1.5-0.7,2.3-2.7,3.1-6.7h1.3l-0.5,9L189.6,65.2L189.6,65.2z"/>
	<path class="st4" d="M211.7,65.2v-1.6h1.7c1.4,0,1.8-0.3,1.8-1.6V44.5c0-1.2-0.3-1.6-1.8-1.6h-1.7v-1.6h11.8
		c7,0,10.8,4.3,10.8,11.9c0,3.7-0.9,6.6-2.7,8.7s-4.2,3.2-7.4,3.2L211.7,65.2L211.7,65.2z M218.8,62c0,1.2,0.4,1.6,1.7,1.6h2.7
		c2.5,0,4.4-0.8,5.4-2.4s1.6-4.2,1.6-8c0-7.4-2.2-10.4-7.6-10.4h-2.2c-1.4,0-1.7,0.4-1.7,1.6V62H218.8z"/>
	<path class="st4" d="M234.8,65.2v-1.6h1.8c1.4,0,1.8-0.4,1.8-1.6V44.5c0-1.2-0.4-1.6-1.8-1.6h-1.8v-1.6h10.8v1.6h-1.8
		c-1.4,0-1.8,0.4-1.8,1.6V62c0,1.2,0.4,1.6,1.8,1.6h1.8v1.6H234.8z"/>
	<path class="st4" d="M266.2,57c-0.7,5.5-4.2,8.8-9.3,8.8c-2.5,0-4.7-0.8-6.4-2.2c-3-2.5-4.5-5.9-4.5-10.3c0-3.3,1-6.2,2.8-8.6
		c2.1-2.6,4.6-3.8,7.9-3.8c2.2,0,4.2,0.7,5.9,2.2l1.3-2h1.3l0.4,9.6l-1.3,0.1c-1-5.4-3.5-8.3-7.2-8.3c-4.6,0-6.9,3.6-6.9,11
		c0,7.5,2.2,10.9,7.1,10.9c3.8,0,6.4-2.6,7.3-7.4H266.2z"/>
	<path class="st4" d="M267.2,65.2v-1.6h1.8c1.4,0,1.8-0.4,1.8-1.6V44.5c0-1.2-0.4-1.6-1.8-1.6h-1.8v-1.6H278v1.6h-1.8
		c-1.4,0-1.8,0.4-1.8,1.6V62c0,1.2,0.4,1.6,1.8,1.6h1.8v1.6H267.2z"/>
	<path class="st4" d="M279.3,65.2v-1.4c1.4-0.1,2.3-0.4,2.8-1s0.7-1.6,0.7-3.3V44c-0.4-0.8-1.2-1.1-3-1.1h-0.6v-1.5h6.4l13.1,18V47
		c0-1.7-0.3-2.8-0.8-3.4c-0.5-0.6-1.6-0.8-3.1-0.9v-1.4h9.2v1.4c-1.4,0.1-2.3,0.4-2.8,1s-0.8,1.7-0.8,3.3v18.8h-1.3l-14.7-20v13.8
		c0,1.7,0.3,2.8,0.8,3.4c0.6,0.6,1.6,0.9,3.1,0.9v1.4L279.3,65.2L279.3,65.2z"/>
	<path class="st4" d="M305.6,65.2v-1.6h1.7c1.4,0,1.8-0.4,1.8-1.6V44.5c0-1.2-0.3-1.6-1.8-1.6h-1.7v-1.6h19.3l0.4,8.4h-1.4
		c-0.4-2.7-1.3-4.8-2.3-5.7c-1.1-0.9-2.7-1.2-6.1-1.2c-1.3,0-2.1,0.1-2.4,0.3s-0.4,0.7-0.4,1.3V52h0.5c3.4,0,4.7-1.2,5-4.6h1.4V58
		h-1.4c-0.2-1.7-0.6-2.9-1.3-3.5c-0.7-0.7-1.9-1-3.7-1h-0.5V62c0,0.7,0.2,1.1,0.5,1.4c0.3,0.2,1.2,0.3,2.6,0.3
		c3.1,0,4.9-0.2,6.1-0.9c1.5-0.7,2.3-2.7,3.1-6.7h1.3l-0.5,9L305.6,65.2L305.6,65.2z"/>
</g>
</svg>
